<svg viewBox="0 0 600 600" version="1.1" id="svg9724" sodipodi:docname="cancel-circle.svg" inkscape:version="1.2.2 (1:1.2.2+202212051550+b0a8486541)" xmlns:inkscape="http://www.inkscape.org/namespaces/inkscape" xmlns:sodipodi="http://sodipodi.sourceforge.net/DTD/sodipodi-0.dtd" xmlns="http://www.w3.org/2000/svg" xmlns:svg="http://www.w3.org/2000/svg" fill="currentColor"><g id="SVGRepo_bgCarrier" stroke-width="0"></g><g id="SVGRepo_tracerCarrier" stroke-linecap="round" stroke-linejoin="round"></g><g id="SVGRepo_iconCarrier"> <defs id="defs9728"></defs> <sodipodi:namedview id="namedview9726" pagecolor="#ffffff" bordercolor="#666666" borderopacity="1.0" inkscape:showpageshadow="2" inkscape:pageopacity="0.0" inkscape:pagecheckerboard="0" inkscape:deskcolor="#d1d1d1" showgrid="true" inkscape:zoom="0.42059315" inkscape:cx="139.08928" inkscape:cy="495.72847" inkscape:window-width="1920" inkscape:window-height="1009" inkscape:window-x="0" inkscape:window-y="1080" inkscape:window-maximized="1" inkscape:current-layer="g10449" showguides="true"> <inkscape:grid type="xygrid" id="grid9972" originx="0" originy="0"></inkscape:grid> </sodipodi:namedview> <g id="g10449" transform="matrix(0.95173205,0,0,0.95115787,13.901174,12.168794)" style="stroke-width:1.05103"> <g id="path10026" inkscape:transform-center-x="-0.59233046" inkscape:transform-center-y="-20.347403" transform="matrix(1.3807551,0,0,1.2700888,273.60014,263.99768)"></g> <g id="g11314" transform="matrix(1.5092301,0,0,1.3955555,36.774048,-9.4503933)" style="stroke-width:50.6951"></g> <path style="color:#000000;fill:#000000;stroke-linecap:round;stroke-linejoin:round;-inkscape-stroke:none;paint-order:stroke fill markers" d="m 300.60937,-12.792969 c -173.60599,0 -315.214839,141.724839 -315.214839,315.404299 0,173.67945 141.608849,315.40429 315.214839,315.40429 173.606,0 315.21485,-141.72484 315.21485,-315.40429 0,-173.67946 -141.60885,-315.404299 -315.21485,-315.404299 z m 0,84.082031 c 128.13278,10e-7 231.13086,103.052738 231.13086,231.322268 0,128.26952 -102.99808,231.32226 -231.13086,231.32226 C 172.4766,533.93359 69.476562,430.88085 69.476562,302.61133 69.476563,174.3418 172.4766,71.289062 300.60937,71.289062 Z" id="path390"></path> <path style="color:#000000;fill:#000000;stroke-linecap:round;stroke-linejoin:round;-inkscape-stroke:none" d="M 416.16211,144.93164 A 42.041401,42.041401 0 0 0 386.4375,157.25391 L 155.30469,388.53125 a 42.041401,42.041401 0 0 0 0.0195,59.45703 42.041401,42.041401 0 0 0 59.45508,-0.0195 L 445.91211,216.69141 a 42.041401,42.041401 0 0 0 -0.0195,-59.45704 42.041401,42.041401 0 0 0 -29.73047,-12.30273 z" id="path446"></path> <path style="color:#000000;fill:#000000;stroke-linecap:round;stroke-linejoin:round;-inkscape-stroke:none" d="m 185.05664,144.93164 a 42.041401,42.041401 0 0 0 -29.73242,12.30273 42.041401,42.041401 0 0 0 -0.0195,59.45704 L 386.4375,447.96875 a 42.041401,42.041401 0 0 0 59.45508,0.0195 42.041401,42.041401 0 0 0 0.0195,-59.45703 L 214.7793,157.25391 a 42.041401,42.041401 0 0 0 -29.72266,-12.32227 z" id="path446-3"></path> </g> </g></svg>